<svg width="14" height="14" viewBox="0 0 14 14" fill="none" xmlns="http://www.w3.org/2000/svg">
<g clip-path="url(#clip0_0_961)">
<path d="M11.6667 5.25H6.41667C5.77233 5.25 5.25 5.77233 5.25 6.41667V11.6667C5.25 12.311 5.77233 12.8333 6.41667 12.8333H11.6667C12.311 12.8333 12.8333 12.311 12.8333 11.6667V6.41667C12.8333 5.77233 12.311 5.25 11.6667 5.25Z" stroke="black" stroke-width="0.583333" stroke-linecap="round" stroke-linejoin="round"/>
<path d="M2.91666 8.75H2.33332C2.0239 8.75 1.72716 8.62708 1.50837 8.40829C1.28957 8.1895 1.16666 7.89275 1.16666 7.58333V2.33333C1.16666 2.02391 1.28957 1.72717 1.50837 1.50837C1.72716 1.28958 2.0239 1.16666 2.33332 1.16666H7.58332C7.89274 1.16666 8.18949 1.28958 8.40828 1.50837C8.62707 1.72717 8.74999 2.02391 8.74999 2.33333V2.91666" stroke="black" stroke-width="0.583333" stroke-linecap="round" stroke-linejoin="round"/>
</g>
<defs>
<clipPath id="clip0_0_961">
<rect width="14" height="14" fill="white"/>
</clipPath>
</defs>
</svg>
