<svg width="16" height="17" viewBox="0 0 16 17" fill="none" xmlns="http://www.w3.org/2000/svg">
<path d="M11 16.5V13.5975C11.0281 13.2399 10.9798 12.8804 10.8583 12.5429C10.7367 12.2053 10.5447 11.8976 10.295 11.64C12.65 11.3775 15.125 10.485 15.125 6.39001C15.1248 5.34288 14.722 4.33591 14 3.57751C14.3419 2.66139 14.3177 1.64878 13.9325 0.750014C13.9325 0.750014 13.0475 0.487514 11 1.86001C9.28101 1.39413 7.46899 1.39413 5.75 1.86001C3.7025 0.487514 2.8175 0.750014 2.8175 0.750014C2.43228 1.64878 2.40811 2.66139 2.75 3.57751C2.0226 4.34154 1.61939 5.35761 1.625 6.41251C1.625 10.4775 4.1 11.37 6.455 11.6625C6.20825 11.9175 6.01795 12.2216 5.89648 12.555C5.77502 12.8883 5.72511 13.2436 5.75 13.5975V16.5M5.75 14.25C2 15.375 2 12.375 0.5 12L5.75 14.25Z" stroke="black" stroke-width="0.75" stroke-linecap="round" stroke-linejoin="round"/>
</svg>
