<svg width="12" height="12" viewBox="0 0 12 12" fill="none" xmlns="http://www.w3.org/2000/svg">
<path d="M8 2.66672C8.35362 2.66672 8.69276 2.80719 8.94281 3.05724C9.19286 3.30729 9.33333 3.64643 9.33333 4.00005L8 2.66672ZM12 4.00005C12.0002 4.62483 11.854 5.24097 11.5732 5.79908C11.2924 6.3572 10.8847 6.84177 10.3829 7.21397C9.88109 7.58617 9.29906 7.83564 8.68347 7.94239C8.06788 8.04915 7.43584 8.01021 6.838 7.82872L5.33333 9.33338H4V10.6667H2.66667V12.0001H0.666667C0.489856 12.0001 0.320286 11.9298 0.195262 11.8048C0.0702379 11.6798 0 11.5102 0 11.3334V9.60938C3.77583e-05 9.43259 0.0703004 9.26305 0.195333 9.13805L4.17133 5.16205C4.00497 4.61206 3.95904 4.03268 4.0367 3.46335C4.11435 2.89402 4.31375 2.3481 4.62133 1.86275C4.92891 1.3774 5.33744 0.964014 5.81913 0.65073C6.30082 0.337446 6.84434 0.131617 7.41272 0.0472538C7.9811 -0.0371096 8.56098 0.00197254 9.11289 0.16184C9.66481 0.321708 10.1758 0.598608 10.6111 0.973693C11.0464 1.34878 11.3958 1.81324 11.6354 2.33548C11.8751 2.85771 11.9994 3.42545 12 4.00005Z" fill="#C4C4C4"/>
</svg>
