<svg width="20" height="20" viewBox="0 0 20 20" fill="none" xmlns="http://www.w3.org/2000/svg">
<path fill-rule="evenodd" clip-rule="evenodd" d="M7.353 0.938976C7.49145 1.07764 7.58611 1.25392 7.62522 1.44593C7.66433 1.63794 7.64618 1.8372 7.573 2.01898C6.98754 3.47402 6.8427 5.06907 7.15649 6.60577C7.47028 8.14248 8.22885 9.55305 9.33789 10.6621C10.4469 11.7711 11.8575 12.5297 13.3942 12.8435C14.9309 13.1573 16.526 13.0124 17.981 12.427C18.1628 12.3539 18.362 12.3359 18.5539 12.3751C18.7459 12.4143 18.9221 12.509 19.0606 12.6475C19.1992 12.786 19.2941 12.9621 19.3334 13.154C19.3728 13.3459 19.3549 13.5451 19.282 13.727C18.5375 15.5795 17.2557 17.1669 15.6016 18.2848C13.9474 19.4027 11.9965 20.0001 10 20C4.477 20 0 15.523 0 9.99998C0 5.79298 2.598 2.19498 6.273 0.717976C6.45477 0.644801 6.65404 0.626641 6.84605 0.665754C7.03805 0.704866 7.21434 0.799526 7.353 0.937976V0.938976Z" fill="#A1A1A1"/>
</svg>
